<svg width="28" height="28" viewBox="0 0 28 28" fill="none" xmlns="http://www.w3.org/2000/svg">
<mask id="mask0_13_1455" style="mask-type:luminance" maskUnits="userSpaceOnUse" x="0" y="0" width="28" height="28">
<rect width="28" height="28" fill="white"/>
</mask>
<g mask="url(#mask0_13_1455)">
<path fill-rule="evenodd" clip-rule="evenodd" d="M5.83337 21V25.3937L7.60087 24.3332L13.1565 21H18.6667C19.9535 21 21 19.9535 21 18.6667V9.33333C21 8.0465 19.9535 7 18.6667 7H4.66671C3.37987 7 2.33337 8.0465 2.33337 9.33333V18.6667C2.33337 19.9535 3.37987 21 4.66671 21H5.83337ZM4.66672 9.33332H18.6667V18.6667H12.5102L8.16672 21.273V18.6667H4.66672V9.33332Z" fill="black"/>
<path fill-rule="evenodd" clip-rule="evenodd" d="M23.3333 2.33325H22.1667H19.831H9.33333C8.0465 2.33325 7 3.37975 7 4.66659H19.3503H21C22.2868 4.66659 23.3333 5.71309 23.3333 6.99992V8.64959V13.9999V16.3333C24.6202 16.3333 25.6667 15.2868 25.6667 13.9999V8.16659V5.83325V4.66659C25.6667 3.37975 24.6202 2.33325 23.3333 2.33325Z" fill="black"/>
</g>
</svg>
