<svg width="25" height="25" viewBox="0 0 25 25" fill="none" xmlns="http://www.w3.org/2000/svg">
<circle cx="12.5" cy="12.5" r="12.5" fill="#D9D9D9" fill-opacity="0.5"/>
<path fill-rule="evenodd" clip-rule="evenodd" d="M18.7499 6.94434H6.24993C5.8659 6.94434 5.55548 7.25475 5.55548 7.63878V17.361C5.55548 17.745 5.8659 18.0554 6.24993 18.0554H18.7499C19.134 18.0554 19.4444 17.745 19.4444 17.361V7.63878C19.4444 7.25475 19.134 6.94434 18.7499 6.94434ZM18.0555 14.5831C16.9048 14.5831 15.9721 15.5158 15.9721 16.6665H9.0277C9.0277 15.5158 8.09506 14.5831 6.94437 14.5831V10.4165C8.09506 10.4165 9.0277 9.48382 9.0277 8.33313H15.9721C15.9721 9.48382 16.9048 10.4165 18.0555 10.4165V14.5831Z" fill="black"/>
<path fill-rule="evenodd" clip-rule="evenodd" d="M12.4999 9.72217C10.968 9.72217 9.72217 10.968 9.72217 12.4999C9.72217 14.0319 10.968 15.2777 12.4999 15.2777C14.0319 15.2777 15.2777 14.0319 15.2777 12.4999C15.2777 10.968 14.0319 9.72217 12.4999 9.72217ZM12.5 13.889C11.734 13.889 11.1111 13.2661 11.1111 12.5001C11.1111 11.7342 11.734 11.1112 12.5 11.1112C13.266 11.1112 13.8889 11.7342 13.8889 12.5001C13.8889 13.2661 13.266 13.889 12.5 13.889Z" fill="black"/>
</svg>
