<svg width="25" height="25" viewBox="0 0 25 25" fill="none" xmlns="http://www.w3.org/2000/svg">
<circle cx="12.5" cy="12.5" r="12.5" fill="#D9D9D9" fill-opacity="0.5"/>
<path fill-rule="evenodd" clip-rule="evenodd" d="M12.5 4.58325C8.13474 4.58325 4.58333 8.13467 4.58333 12.4999C4.58333 16.8652 8.13474 20.4166 12.5 20.4166C16.8652 20.4166 20.4167 16.8652 20.4167 12.4999C20.4167 8.13467 16.8652 4.58325 12.5 4.58325ZM12.5 18.8333C9.00796 18.8333 6.16667 15.992 6.16667 12.5C6.16667 9.00796 9.00796 6.16667 12.5 6.16667C15.992 6.16667 18.8333 9.00796 18.8333 12.5C18.8333 15.992 15.992 18.8333 12.5 18.8333Z" fill="black"/>
<path fill-rule="evenodd" clip-rule="evenodd" d="M10.9159 13.7563L9.09591 11.9394L7.97807 13.0604L10.9175 15.9935L16.2264 10.6846L15.107 9.56519L10.9159 13.7563Z" fill="black"/>
</svg>
